HIERARCHY
ROOT ui
{
	 OFFSET 0 0 0
	 CHANNELS 3 XPosition YPosition Z Position
	 EndSite
	 {
	 OFFSET 0 -1 0
	 }
}
ROOT li
{
	 OFFSET 0 0 0
	 CHANNELS 3 XPosition YPosition Z Position
	 EndSite
	 {
	 OFFSET 0 -1 0
	 }
}
ROOT ul
{
	 OFFSET 0 0 0
	 CHANNELS 3 XPosition YPosition Z Position
	 EndSite
	 {
	 OFFSET 0 -1 0
	 }
}
ROOT ll
{
	 OFFSET 0 0 0
	 CHANNELS 3 XPosition YPosition Z Position
	 EndSite
	 {
	 OFFSET 0 -1 0
	 }
}
ROOT tt
{
	 OFFSET 0 0 0
	 CHANNELS 3 XPosition YPosition Z Position
	 EndSite
	 {
	 OFFSET 0 -1 0
	 }
}
ROOT tb
{
	 OFFSET 0 0 0
	 CHANNELS 3 XPosition YPosition Z Position
	 EndSite
	 {
	 OFFSET 0 -1 0
	 }
}
ROOT td
{
	 OFFSET 0 0 0
	 CHANNELS 3 XPosition YPosition Z Position
	 EndSite
	 {
	 OFFSET 0 -1 0
	 }
}
ROOT v
{
	 OFFSET 0 0 0
	 CHANNELS 3 XPosition YPosition Z Position
	 EndSite
	 {
	 OFFSET 0 -1 0
	 }
}
ROOT bn
{
	 OFFSET 0 0 0
	 CHANNELS 3 XPosition YPosition Z Position
	 EndSite
	 {
	 OFFSET 0 -1 0
	 }
}
MOTION
Frames: 29
Frame Time: 0.002
-0.0017983880043029785	7.435299754142761E-4	0		0.4209169616699219	-2.327767822265625	0		-1.1453040771484375	-0.007543488025665283	0		-0.87178173828125	-2.342571044921875	0		1.4841396484375	-0.4901058044433594	0		3.076529541015625	-0.021180139541625977	0		4.59946044921875	0.12928134155273438	0		5.58609033203125	0.2351138916015625	0		-0.317853759765625	5.95175146484375	0		
-0.021021879196166993	0.004963749885559082	0		0.4117337646484375	-2.321782470703125	0		-1.1477191162109375	-0.011716452598571778	0		-0.870108154296875	-2.3428388671875	0		1.4827236328125	-0.4943063049316406	0		3.111291259765625	-0.018226490020751954	0		4.59948876953125	0.14404730224609374	0		5.58959228515625	0.25180682373046875	0		-0.31616693115234373	5.95148291015625	0		
-0.022444196701049805	0.0017740590572357178	0		0.41133038330078125	-2.32399658203125	0		-1.146072265625	-0.011975058555603027	0		-0.8705115356445312	-2.34505078125	0		1.4813004150390625	-0.49749868774414063	0		3.08878125	-0.024929969787597657	0		4.61696826171875	0.1364065399169922	0		5.58779736328125	0.23939402770996093	0		-0.31643878173828127	5.9542685546875	0		
-0.020848371505737304	0.0015246599912643432	0		0.42066241455078124	-2.3354306640625	0		-1.1526378173828125	-0.019033395767211914	0		-0.8319537963867187	-2.347162841796875	0		1.482895263671875	-0.49775103759765627	0		3.08144970703125	-0.02197598648071289	0		4.6075205078125	0.13440562438964843	0		5.58550390625	0.25298219299316405	0		-0.31290191650390625	5.95097412109375	0		
-0.019319372177124025	0.001288367986679077	0		0.4252790832519531	-2.331739013671875	0		-1.1329969482421876	-0.014689289093017577	0		-0.863303955078125	-2.34162744140625	0		1.487492431640625	-0.4950614624023438	0		3.1216640625	-0.036126808166503904	0		4.6090498046875	0.13415940856933595	0		5.59709033203125	0.23119221496582032	0		-0.3094074401855469	5.94869189453125	0		
-0.014798455238342285	0.00399567699432373	0		0.430841064453125	-2.327056640625	0		-1.13154541015625	-0.014908469200134278	0		-0.8567188720703125	-2.3359658203125	0		1.4951282958984375	-0.48742913818359374	0		3.091661865234375	-0.012614192962646485	0		4.623638671875	0.13962147521972657	0		5.59699951171875	0.26199884033203125	0		-0.309894775390625	5.95051708984375	0		
-0.01343015480041504	0.0037893240451812743	0		0.42808782958984376	-2.33216943359375	0		-1.1401275634765624	-0.012878853797912598	0		-0.857402587890625	-2.338122802734375	0		1.481382568359375	-0.4922872314453125	0		3.09644482421875	-0.037914905548095706	0		4.6129169921875	0.13568522644042968	0		5.59500634765625	0.24967327880859375	0		-0.30851174926757813	5.9503115234375	0		
0.008753259658813477	-8.912810087203979E-4	0		0.4684004211425781	-2.3312734375	0		-1.0740498046875	-0.02258400344848633	0		-0.8669360961914062	-2.330056396484375	0		1.48852197265625	-0.4986205749511719	0		3.09600830078125	-0.026070405960083008	0		4.6142001953125	0.13548225402832031	0		5.59295166015625	0.2373731689453125	0		-0.30721340942382813	5.95012158203125	0		
-0.01401993465423584	4.939149916172028E-4	0		0.4295081787109375	-2.33451416015625	0		-1.1417171630859375	-0.01614476203918457	0		-0.854935791015625	-2.338484619140625	0		1.489717529296875	-0.49880035400390627	0		3.122823974609375	-0.042858203887939456	0		4.620208984375	0.12717900848388672	0		5.59380517578125	0.23704273986816407	0		-0.3059999084472656	5.94994677734375	0		
0.011062012672424317	-0.001228060007095337	0		0.4316596984863281	-2.332700439453125	0		-1.1365362548828124	-0.01339684772491455	0		-0.8497383422851562	-2.33473779296875	0		1.493897216796875	-0.49603680419921875	0		3.1016669921875	-0.011499151229858399	0		4.6106748046875	0.14225743103027344	0		5.5975673828125	0.24868093872070313	0		-0.3048705139160156	5.94978662109375	0		
-0.008810555458068848	0.0031147119998931887	0		0.4270097045898438	-2.31871240234375	0		-1.131415771484375	-0.009635201454162598	0		-0.8533885498046875	-2.320769287109375	0		1.4980166015625	-0.49225985717773435	0		3.1051796875	-0.03372004699707031	0		4.62167724609375	0.14086244201660156	0		5.59830029296875	0.24839697265625	0		-0.30284771728515625	5.9486171875	0		
0.013035837173461915	-0.001509403944015503	0		0.4325723876953125	-2.33496044921875	0		-1.138631591796875	-0.016576616287231446	0		-0.8544965209960937	-2.322853271484375	0		1.492798583984375	-0.4992564697265625	0		3.12756396484375	-0.015360401153564454	0		4.6232958984375	0.1266940689086914	0		5.598974609375	0.2481346435546875	0		-0.302859375	5.94950732421875	0		
-0.010070005416870116	-7.005999982357025E-5	0		0.42364218139648435	-2.325852294921875	0		-1.0689033203125	-0.023307369232177733	0		-0.8536399536132813	-2.32297216796875	0		1.4936611328125	-0.4993831481933594	0		3.097038818359375	-0.03176263236999512	0		4.6193486328125	0.13467185974121093	0		5.59662158203125	0.2359478302001953	0		-0.3019755859375	5.94938671875	0		
0.014683279037475586	-0.0017415920495986938	0		0.4244176025390625	-2.325964111328125	0		-1.1410767822265624	-0.020706459045410155	0		-0.8508182983398438	-2.321126953125	0		1.4944427490234375	-0.49949850463867185	0		3.096126708984375	-0.018840154647827147	0		4.62427197265625	0.14045074462890625	0		5.59308544921875	0.2549925537109375	0		-0.30019598388671875	5.94825390625	0		
-0.008584443092346192	-2.799209952354431E-4	0		0.44368557739257813	-2.344504638671875	0		-1.136281982421875	-0.016896848678588868	0		-0.838267578125	-2.3275029296875	0		1.495143310546875	-0.49960321044921874	0		3.117402099609375	-0.03743678665161133	0		4.62873974609375	0.1302445068359375	0		5.60773095703125	0.24187147521972657	0		-0.29849703979492187	5.94713232421875	0		
-0.00489400577545166	0.002559696912765503	0		0.4406741027832031	-2.32850634765625	0		-1.1274993896484375	-0.010171460151672364	0		-0.8751760864257813	-2.30670556640625	0		1.5050177001953124	-0.488911376953125	0		3.134650390625	-0.010918741226196288	0		4.62873583984375	0.146158203125	0		5.61457373046875	0.23959007263183593	0		-0.2988318176269531	5.94806689453125	0		
-0.0074234619140625	-4.489549994468689E-4	0		0.43709005737304685	-2.33349267578125	0		-1.066257080078125	-0.023671781539916992	0		-0.8088963012695313	-2.318324462890625	0		1.4963009033203125	-0.4997825927734375	0		3.085712158203125	-0.030856609344482422	0		4.62613671875	0.14013436889648437	0		5.6014775390625	0.24710662841796874	0		-0.29827133178710935	5.94798828125	0		
-0.0069631638526916504	-5.196689963340759E-4	0		0.4364957275390625	-2.335541015625	0		-1.1387535400390625	-0.02103018569946289	0		-0.8433641967773438	-2.31457373046875	0		1.4967593994140624	-0.4998585205078125	0		3.10426123046875	-0.027360490798950195	0		4.632455078125	0.13390882873535156	0		5.6029814453125	0.2209274139404297	0		-0.29779049682617187	5.9479189453125	0		
-0.006579337120056153	-5.821890234947205E-4	0		0.4348252258300781	-2.3375576171875	0		-1.1383697509765625	-0.021088798522949218	0		-0.8429883422851563	-2.31463330078125	0		1.4971416015625	-0.4999262390136719	0		3.11382958984375	-0.019646665573120118	0		4.6269814453125	0.1399691162109375	0		5.606173828125	0.22754237365722657	0		-0.2973861083984375	5.947857421875	0		
0.017702518463134767	-0.0021989099979400637	0		0.43717532348632815	-2.335661376953125	0		-1.1380579833984374	-0.021139894485473633	0		-0.8735120239257812	-2.30696142578125	0		1.49745166015625	-0.49998638916015625	0		3.123302978515625	-0.012925067901611327	0		4.6272939453125	0.13989817810058594	0		5.60639599609375	0.22741435241699218	0		-0.2970538024902344	5.94780322265625	0		
-0.002953563928604126	0.002243803024291992	0		0.440528076171875	-2.330782470703125	0		-1.0704337158203125	-0.0057577710151672365	0		-0.8322164306640625	-2.304967529296875	0		1.500763916015625	-0.49711056518554686	0		3.111035400390625	-0.03469663619995117	0		4.6275390625	0.13983439636230469	0		5.60544482421875	0.25851123046875	0		-0.2967889404296875	5.94775634765625	0		
-0.005842153072357178	-7.263330221176147E-4	0		0.437584716796875	-2.335753662109375	0		-1.1376326904296874	-0.02122132682800293	0		-0.8448992919921875	-2.298703125	0		1.4978736572265625	-0.5000858154296876	0		3.132655517578125	-0.016245555877685548	0		4.6367177734375	0.1395666198730469	0		5.6101474609375	0.21488568115234374	0		-0.296587890625	5.9477158203125	0		
-0.0057214732170104985	-7.611929774284363E-4	0		0.45283401489257813	-2.33014306640625	0		-1.0772943115234375	-0.01266074562072754	0		-0.8468326416015625	-2.300687744140625	0		1.49799267578125	-0.500125732421875	0		3.09969140625	-0.01951677703857422	0		4.6237021484375	0.13382234191894532	0		5.602689453125	0.24637049865722657	0		-0.29644720458984375	5.94768212890625	0		
-0.005656593799591064	-7.90024995803833E-4	0		0.4454947814941406	-2.347004638671875	0		-1.15018603515625	-0.009975892066955566	0		-0.8447290649414062	-2.29876123046875	0		1.4980557861328125	-0.5001595458984375	0		3.1116123046875	-0.025835412979125977	0		4.62790673828125	0.13968281555175782	0		5.5986416015625	0.2655570068359375	0		-0.29636264038085935	5.947654296875	0		
-0.005641755104064942	-8.130159974098206E-4	0		0.446548583984375	-2.34505322265625	0		-1.1374324951171875	-0.021296781539916994	0		-0.9114689331054687	-2.287214111328125	0		1.498069091796875	-0.5001874084472656	0		3.118648681640625	-0.025032838821411132	0		4.62687548828125	0.1376687469482422	0		5.60982666015625	0.24062425231933593	0		-0.29439932250976564	5.94458642578125	0		
-0.0026003289222717284	0.002098663091659546	0		0.44288916015625	-2.328982421875	0		-1.129298828125	-0.01449979305267334	0		-0.835501708984375	-2.288010009765625	0		1.5072947998046875	-0.4894233093261719	0		3.128016357421875	-0.00827553653717041	0		4.6310341796875	0.14554092407226563	0		5.60569580078125	0.25810272216796876	0		-0.2953613586425781	5.9465927734375	0		
0.02133006477355957	0.001524662971496582	0		0.4875252990722656	-2.342046875	0		-1.077305908203125	-0.012727443695068359	0		-0.8376416015625	-2.29097119140625	0		1.497974853515625	-0.5002254638671875	0		3.08570703125	-0.01830917739868164	0		4.62783203125	0.1395871124267578	0		5.60268115234375	0.24610890197753907	0		-0.29638226318359373	5.94760546875	0		
-0.005823434829711914	-8.475919961929322E-4	0		0.4277723083496094	-2.3266513671875	0		-1.15035302734375	-0.010019109725952149	0		-0.8495717163085937	-2.283695068359375	0		1.4978826904296876	-0.5002359619140625	0		3.129557373046875	-0.021355403900146484	0		4.633599609375	0.13342814636230468	0		5.59964697265625	0.23412532043457032	0		-0.29645489501953126	5.9476005859375	0		
-0.005935524940490723	-8.485289812088013E-4	0		0.46031607055664064	-2.341423583984375	0		-1.1377265625	-0.021318443298339845	0		-0.884610595703125	-2.279873779296875	0		1.4977691650390625	-0.5002413330078125	0		3.114472900390625	-0.020014177322387694	0		4.623490234375	0.13364797973632814	0		5.60366064453125	0.21482745361328126	0		-0.2965494384765625	5.94760009765625	0		
